	<svg height="520" width="858.4" xmlns="http://www.w3.org/2000/svg" xmlns:xlink="http://www.w3.org/1999/xlink">
	<g transform="translate(-280 -60)">
		<path d="M0 0h1323.2v1870.4H0z" fill="#b2b2b2"></path>
		<path d="M778.4 160c0 44.18-35.46 80-79.2 80S620 204.18 620 160s35.46-80 79.2-80 79.2 35.82 79.2 80z" fill="#c92d39" id="element1" stroke="#000" stroke-width="2"></path>
		<use transform="matrix(1,0,0,1,625,85) translate(34.074999999999996 67.8)" xlink:href="#a"></use>
		<use transform="matrix(1,0,0,1,625,85) translate(28.099999999999994 89.4)" xlink:href="#b"></use>
		<path d="M1118.4 480c0 44.18-35.46 80-79.2 80S960 524.18 960 480s35.46-80 79.2-80 79.2 35.82 79.2 80z" fill="#7ab648" stroke="#000" stroke-width="2"></path>
		<use transform="matrix(1,0,0,1,965,405) translate(28.525 78.60000000000001)" xlink:href="#c"></use>
		<use transform="matrix(1,0,0,1,965,405) translate(95.475 78.60000000000001)" xlink:href="#d"></use>
		<path d="M1039.2 400v-.18l-.02-.2-.02-.18-.03-.2-.04-.24-.07-.23-.07-.26-.1-.27-.1-.3-.15-.35-.16-.37-.22-.4-.27-.47-.34-.54-.42-.63-.55-.7-.7-.87-.93-1.02-1.23-1.26-1.7-1.58-2.36-2.04-3.42-2.72-5.2-3.75-8.2-5.44-13.66-8.25-23.28-12.74-36.23-17.92-38.86-17.33-24.85-9.9-12.5-4.4-6.46-1.95-2.37-.63-48.44-13.4-39.57-12.6-22.8-8.33-13.54-5.6-8.52-3.95-5.66-2.93-3.93-2.24-2.8-1.77-2.1-1.45-1.6-1.18-1.23-1-.97-.88-.78-.75-.63-.67-.52-.6-.42-.52-.36-.47-.3-.44-.24-.4-.2-.4-.18-.33-.14-.33-.13-.3-.1-.3-.07-.27-.07-.26-.06-.24-.04-.25-.03-.22-.02-.23V240" fill="none" stroke="#000" stroke-width="2"></path>
		<path d="M1040.48 400.04l-1.28-.04.8-.6zM711.85 248.06l-7.15 5.9-5.5-13.96z"></path>
		<path d="M713.55 247.96l-9.28 7.64-6.16-15.63 1.1.03h.66l1.13-.05zm-8.43 4.35l5.03-4.14-8.9-5.66z"></path>
		<path d="M898.4 480c0 44.18-35.46 80-79.2 80S740 524.18 740 480s35.46-80 79.2-80 79.2 35.82 79.2 80z" fill="#7ab648" stroke="#000" stroke-width="2"></path>
		<use transform="matrix(1,0,0,1,745,405) translate(19.924999999999997 78.60000000000001)" xlink:href="#e"></use>
		<use transform="matrix(1,0,0,1,745,405) translate(61.175 78.60000000000001)" xlink:href="#f"></use>
		<path d="M960 480h-60.6" fill="none" stroke="#000" stroke-width="2"></path>
		<path d="M960 480v.68l.02.32H960v-2h.03zM913.67 484.64L899.4 480l14.27-4.64z"></path>
		<path d="M914.67 486l-16.3-5.28.03-.72V479.27l16.27-5.28zm-12.03-6l10.03 3.26v-6.52z"></path>
		<path d="M552 420h128l-32 120H520z" fill="#fff" stroke="#000" stroke-width="2"></path>
		<use transform="matrix(1,0,0,1,525,425) translate(30.625 58.6)" xlink:href="#g"></use>
		<use transform="matrix(1,0,0,1,525,425) translate(95.475 58.6)" xlink:href="#h"></use>
		<path d="M667.24 480l-3.55 1.15.56-2.12z"></path>
		<path d="M740 480h-74.97" fill="none" stroke="#000" stroke-width="2"></path>
		<path d="M740 480v.68l.02.32H740v-2h.03zM679.3 484.64L665.03 480l14.27-4.64z"></path>
		<path d="M680.3 486l-16.48-5.34.4-1.44L680.3 474zm-12.03-6l10.03 3.26v-6.52z"></path>
		<path d="M300 420h160v120H300z" fill="#7ab648" stroke="#000" stroke-width="2"></path>
		<use transform="matrix(1,0,0,1,305,425) translate(20.424999999999997 47.8)" xlink:href="#e"></use>
		<use transform="matrix(1,0,0,1,305,425) translate(61.675 47.8)" xlink:href="#i"></use>
		<use transform="matrix(1,0,0,1,305,425) translate(32.125 69.4)" xlink:href="#j"></use>
		<path d="M536 480h-75" fill="none" stroke="#000" stroke-width="2"></path>
		<path d="M536 480v-1h.27zM475.27 484.64L461 480l14.27-4.64z"></path>
		<path d="M476.27 486L460 480.74v-1.46l16.27-5.28zm-12.03-6l10.03 3.26v-6.52z"></path>
		<path d="M332 240h128l-32 120H300z" fill="#fff" stroke="#000" stroke-width="2"></path>
		<use transform="matrix(1,0,0,1,305,245) translate(19.099999999999994 58.6)" xlink:href="#k"></use>
		<use transform="matrix(1,0,0,1,305,245) translate(80 58.6)" xlink:href="#l"></use>
		<path d="M699.2 240l-.1 4.32-.24 4-.4 3.72-.5 3.5-.63 3.27-.73 3.1-.8 2.94-.92 2.8-1 2.66-1.07 2.55-1.14 2.46-1.24 2.38-1.32 2.3-1.42 2.2-1.5 2.17-1.6 2.1-1.7 2.07-1.82 2-1.93 2-2.08 1.94-2.22 1.9-2.38 1.9-2.57 1.87-2.77 1.84-3 1.8-3.26 1.8-3.56 1.78-3.9 1.74-4.32 1.7-4.77 1.65-5.3 1.6-5.95 1.52-6.68 1.42-7.58 1.27-8.65 1.08-9.92.83-11.48.48H575.4l-15.66-.68-18.36-1.55-21.52-2.73-24.9-4.23-27.93-5.94-22-5.53" fill="none" stroke="#000" stroke-width="2"></path>
		<path d="M700.2 240.08l-1.07-.08h.73l.34-.02zM457.74 307.97l-12.7-7.97 14.96-1.02z"></path>
		<path d="M458.38 309.55l-14.5-9.1.37-1.4 17.06-1.16zm-10.2-8.76l8.93 5.6 1.6-6.33z"></path>
		<path d="M380 360v60" fill="none" stroke="#000" stroke-width="2"></path>
		<path d="M380 420l-4.64-14.27h9.28z"></path>
		<path d="M381.05 420h-2.1L374 404.73h12zm-4.3-13.27l3.25 10.03 3.26-10.03z"></path>
		<path d="M960 480h-61.6" fill="none" stroke="#000" stroke-width="2"></path>
		<path d="M960 480v.68l.02.32H960v-2h.03zM912.67 484.64L898.4 480l14.27-4.64z"></path>
		<path d="M913.67 486l-15.3-4.96.03-1.04v-.68l-.02-.37 15.3-4.96zm-12.03-6l10.03 3.26v-6.52z"></path>
		<defs>
			<path d="M212-179c-10-28-35-45-73-45-59 0-87 40-87 99 0 60 29 101 89 101 43 0 62-24 78-52l27 14C228-24 195 4 139 4 59 4 22-46 18-125c-6-104 99-153 187-111 19 9 31 26 39 46" fill="#fff" id="m"></path>
			<path d="M114-163C36-179 61-72 57 0H25l-1-190h30c1 12-1 29 2 39 6-27 23-49 58-41v29" fill="#fff" id="n"></path>
			<path d="M179-190L93 31C79 59 56 82 12 73V49c39 6 53-20 64-50L1-190h34L92-34l54-156h33" fill="#fff" id="o"></path>
			<path d="M100-194c62-1 85 37 85 99 1 63-27 99-86 99S16-35 15-95c0-66 28-99 85-99zM99-20c44 1 53-31 53-75 0-43-8-75-51-75s-53 32-53 75 10 74 51 75" fill="#fff" id="p"></path>
			<path d="M177-190C167-65 218 103 67 71c-23-6-38-20-44-43l32-5c15 47 100 32 89-28v-30C133-14 115 1 83 1 29 1 15-40 15-95c0-56 16-97 71-98 29-1 48 16 59 35 1-10 0-23 2-32h30zM94-22c36 0 50-32 50-73 0-42-14-75-50-75-39 0-46 34-46 75s6 73 46 73" fill="#fff" id="q"></path>
			<path d="M100-194c63 0 86 42 84 106H49c0 40 14 67 53 68 26 1 43-12 49-29l28 8c-11 28-37 45-77 45C44 4 14-33 15-96c1-61 26-98 85-98zm52 81c6-60-76-77-97-28-3 7-6 17-6 28h103" fill="#fff" id="r"></path>
			<path d="M117-194c89-4 53 116 60 194h-32v-121c0-31-8-49-39-48C34-167 62-67 57 0H25l-1-190h30c1 10-1 24 2 32 11-22 29-35 61-36" fill="#fff" id="s"></path>
			<path d="M24-231v-30h32v30H24zM24 0v-190h32V0H24" fill="#fff" id="t"></path>
			<path d="M96-169c-40 0-48 33-48 73s9 75 48 75c24 0 41-14 43-38l32 2c-6 37-31 61-74 61-59 0-76-41-82-99-10-93 101-131 147-64 4 7 5 14 7 22l-32 3c-4-21-16-35-41-35" fill="#fff" id="u"></path>
			<g id="a">
				<use transform="matrix(0.05,0,0,0.05,0,0)" xlink:href="#m"></use>
				<use transform="matrix(0.05,0,0,0.05,12.950000000000001,0)" xlink:href="#n"></use>
				<use transform="matrix(0.05,0,0,0.05,18.900000000000002,0)" xlink:href="#o"></use>
				<use transform="matrix(0.05,0,0,0.05,27.900000000000002,0)" xlink:href="#p"></use>
				<use transform="matrix(0.05,0,0,0.05,37.900000000000006,0)" xlink:href="#q"></use>
				<use transform="matrix(0.05,0,0,0.05,47.900000000000006,0)" xlink:href="#r"></use>
				<use transform="matrix(0.05,0,0,0.05,57.900000000000006,0)" xlink:href="#s"></use>
				<use transform="matrix(0.05,0,0,0.05,67.9,0)" xlink:href="#t"></use>
				<use transform="matrix(0.05,0,0,0.05,71.85000000000001,0)" xlink:href="#u"></use>
			</g>
			<path d="M233-177c-1 41-23 64-60 70L243 0h-38l-65-103H63V0H30v-248c88 3 205-21 203 71zM63-129c60-2 137 13 137-47 0-61-80-42-137-45v92" fill="#fff" id="v"></path>
			<path d="M141-36C126-15 110 5 73 4 37 3 15-17 15-53c-1-64 63-63 125-63 3-35-9-54-41-54-24 1-41 7-42 31l-33-3c5-37 33-52 76-52 45 0 72 20 72 64v82c-1 20 7 32 28 27v20c-31 9-61-2-59-35zM48-53c0 20 12 33 32 33 41-3 63-29 60-74-43 2-92-5-92 41" fill="#fff" id="w"></path>
			<path d="M85-194c31 0 48 13 60 33l-1-100h32l1 261h-30c-2-10 0-23-3-31C134-8 116 4 85 4 32 4 16-35 15-94c0-66 23-100 70-100zm9 24c-40 0-46 34-46 75 0 40 6 74 45 74 42 0 51-32 51-76 0-42-9-74-50-73" fill="#fff" id="x"></path>
			<path d="M210-169c-67 3-38 105-44 169h-31v-121c0-29-5-50-35-48C34-165 62-65 56 0H25l-1-190h30c1 10-1 24 2 32 10-44 99-50 107 0 11-21 27-35 58-36 85-2 47 119 55 194h-31v-121c0-29-5-49-35-48" fill="#fff" id="y"></path>
			<path d="M59-47c-2 24 18 29 38 22v24C64 9 27 4 27-40v-127H5v-23h24l9-43h21v43h35v23H59v120" fill="#fff" id="z"></path>
			<g id="b">
				<use transform="matrix(0.05,0,0,0.05,0,0)" xlink:href="#v"></use>
				<use transform="matrix(0.05,0,0,0.05,12.950000000000001,0)" xlink:href="#w"></use>
				<use transform="matrix(0.05,0,0,0.05,22.950000000000003,0)" xlink:href="#x"></use>
				<use transform="matrix(0.05,0,0,0.05,32.95,0)" xlink:href="#t"></use>
				<use transform="matrix(0.05,0,0,0.05,36.900000000000006,0)" xlink:href="#p"></use>
				<use transform="matrix(0.05,0,0,0.05,46.900000000000006,0)" xlink:href="#y"></use>
				<use transform="matrix(0.05,0,0,0.05,61.85,0)" xlink:href="#r"></use>
				<use transform="matrix(0.05,0,0,0.05,71.85000000000001,0)" xlink:href="#z"></use>
				<use transform="matrix(0.05,0,0,0.05,76.85000000000001,0)" xlink:href="#r"></use>
				<use transform="matrix(0.05,0,0,0.05,86.85000000000001,0)" xlink:href="#n"></use>
			</g>
			<path d="M194 0L95-120 63-95V0H30v-248h33v124l119-124h40L117-140 236 0h-42" fill="#fff" id="A"></path>
			<path d="M115-194c55 1 70 41 70 98S169 2 115 4C84 4 66-9 55-30l1 105H24l-1-265h31l2 30c10-21 28-34 59-34zm-8 174c40 0 45-34 45-75s-6-73-45-74c-42 0-51 32-51 76 0 43 10 73 51 73" fill="#fff" id="B"></path>
			<g id="c">
				<use transform="matrix(0.05,0,0,0.05,0,0)" xlink:href="#A"></use>
				<use transform="matrix(0.05,0,0,0.05,12,0)" xlink:href="#n"></use>
				<use transform="matrix(0.05,0,0,0.05,17.95,0)" xlink:href="#o"></use>
				<use transform="matrix(0.05,0,0,0.05,26.950000000000003,0)" xlink:href="#B"></use>
				<use transform="matrix(0.05,0,0,0.05,36.95,0)" xlink:href="#z"></use>
				<use transform="matrix(0.05,0,0,0.05,41.95,0)" xlink:href="#p"></use>
				<use transform="matrix(0.05,0,0,0.05,51.95,0)" xlink:href="#s"></use>
			</g>
			<path d="M33 0v-248h34V0H33" fill="#fff" id="C"></path>
			<g id="d">
				<use transform="matrix(0.05,0,0,0.05,0,0)" xlink:href="#C"></use>
				<use transform="matrix(0.05,0,0,0.05,5,0)" xlink:href="#p"></use>
				<use transform="matrix(0.05,0,0,0.05,15,0)" xlink:href="#s"></use>
			</g>
			<path d="M127-220V0H93v-220H8v-28h204v28h-85" fill="#fff" id="D"></path>
			<g id="e">
				<use transform="matrix(0.05,0,0,0.05,0,0)" xlink:href="#D"></use>
				<use transform="matrix(0.05,0,0,0.05,10.3,0)" xlink:href="#n"></use>
				<use transform="matrix(0.05,0,0,0.05,16.25,0)" xlink:href="#w"></use>
				<use transform="matrix(0.05,0,0,0.05,26.25,0)" xlink:href="#B"></use>
			</g>
			<path d="M30-248c118-7 216 8 213 122C240-48 200 0 122 0H30v-248zM63-27c89 8 146-16 146-99s-60-101-146-95v194" fill="#fff" id="E"></path>
			<g id="f">
				<use transform="matrix(0.05,0,0,0.05,0,0)" xlink:href="#E"></use>
				<use transform="matrix(0.05,0,0,0.05,12.950000000000001,0)" xlink:href="#r"></use>
				<use transform="matrix(0.05,0,0,0.05,22.950000000000003,0)" xlink:href="#z"></use>
				<use transform="matrix(0.05,0,0,0.05,27.950000000000003,0)" xlink:href="#r"></use>
				<use transform="matrix(0.05,0,0,0.05,37.95,0)" xlink:href="#u"></use>
				<use transform="matrix(0.05,0,0,0.05,46.95,0)" xlink:href="#z"></use>
				<use transform="matrix(0.05,0,0,0.05,51.95,0)" xlink:href="#p"></use>
				<use transform="matrix(0.05,0,0,0.05,61.95,0)" xlink:href="#n"></use>
			</g>
			<path d="M212-179c-10-28-35-45-73-45-59 0-87 40-87 99 0 60 29 101 89 101 43 0 62-24 78-52l27 14C228-24 195 4 139 4 59 4 22-46 18-125c-6-104 99-153 187-111 19 9 31 26 39 46" id="F"></path>
			<path d="M84 4C-5 8 30-112 23-190h32v120c0 31 7 50 39 49 72-2 45-101 50-169h31l1 190h-30c-1-10 1-25-2-33-11 22-28 36-60 37" id="G"></path>
			<path d="M114-163C36-179 61-72 57 0H25l-1-190h30c1 12-1 29 2 39 6-27 23-49 58-41v29" id="H"></path>
			<path d="M100-194c63 0 86 42 84 106H49c0 40 14 67 53 68 26 1 43-12 49-29l28 8c-11 28-37 45-77 45C44 4 14-33 15-96c1-61 26-98 85-98zm52 81c6-60-76-77-97-28-3 7-6 17-6 28h103" id="I"></path>
			<path d="M117-194c89-4 53 116 60 194h-32v-121c0-31-8-49-39-48C34-167 62-67 57 0H25l-1-190h30c1 10-1 24 2 32 11-22 29-35 61-36" id="J"></path>
			<path d="M59-47c-2 24 18 29 38 22v24C64 9 27 4 27-40v-127H5v-23h24l9-43h21v43h35v23H59v120" id="K"></path>
			<g id="g">
				<use transform="matrix(0.05,0,0,0.05,0,0)" xlink:href="#F"></use>
				<use transform="matrix(0.05,0,0,0.05,12.950000000000001,0)" xlink:href="#G"></use>
				<use transform="matrix(0.05,0,0,0.05,22.950000000000003,0)" xlink:href="#H"></use>
				<use transform="matrix(0.05,0,0,0.05,28.900000000000002,0)" xlink:href="#H"></use>
				<use transform="matrix(0.05,0,0,0.05,34.85,0)" xlink:href="#I"></use>
				<use transform="matrix(0.05,0,0,0.05,44.85,0)" xlink:href="#J"></use>
				<use transform="matrix(0.05,0,0,0.05,54.85,0)" xlink:href="#K"></use>
			</g>
			<path d="M87 75C49 33 22-17 22-94c0-76 28-126 65-167h31c-38 41-64 92-64 168S80 34 118 75H87" id="L"></path>
			<path d="M205 0l-28-72H64L36 0H1l101-248h38L239 0h-34zm-38-99l-47-123c-12 45-31 82-46 123h93" id="M"></path>
			<path d="M33-261c38 41 65 92 65 168S71 34 33 75H2C39 34 66-17 66-93S39-220 2-261h31" id="N"></path>
			<g id="h">
				<use transform="matrix(0.05,0,0,0.05,0,0)" xlink:href="#L"></use>
				<use transform="matrix(0.05,0,0,0.05,5.95,0)" xlink:href="#M"></use>
				<use transform="matrix(0.05,0,0,0.05,17.95,0)" xlink:href="#N"></use>
			</g>
			<g id="i">
				<use transform="matrix(0.05,0,0,0.05,0,0)" xlink:href="#E"></use>
				<use transform="matrix(0.05,0,0,0.05,12.950000000000001,0)" xlink:href="#r"></use>
				<use transform="matrix(0.05,0,0,0.05,22.950000000000003,0)" xlink:href="#z"></use>
				<use transform="matrix(0.05,0,0,0.05,27.950000000000003,0)" xlink:href="#r"></use>
				<use transform="matrix(0.05,0,0,0.05,37.95,0)" xlink:href="#u"></use>
				<use transform="matrix(0.05,0,0,0.05,46.95,0)" xlink:href="#z"></use>
				<use transform="matrix(0.05,0,0,0.05,51.95,0)" xlink:href="#p"></use>
				<use transform="matrix(0.05,0,0,0.05,61.95,0)" xlink:href="#n"></use>
			</g>
			<path d="M24 0v-261h32V0H24" fill="#fff" id="O"></path>
			<path d="M115-194c53 0 69 39 70 98 0 66-23 100-70 100C84 3 66-7 56-30L54 0H23l1-261h32v101c10-23 28-34 59-34zm-8 174c40 0 45-34 45-75 0-40-5-75-45-74-42 0-51 32-51 76 0 43 10 73 51 73" fill="#fff" id="P"></path>
			<g id="j">
				<use transform="matrix(0.05,0,0,0.05,0,0)" xlink:href="#m"></use>
				<use transform="matrix(0.05,0,0,0.05,12.950000000000001,0)" xlink:href="#w"></use>
				<use transform="matrix(0.05,0,0,0.05,22.950000000000003,0)" xlink:href="#O"></use>
				<use transform="matrix(0.05,0,0,0.05,26.900000000000002,0)" xlink:href="#t"></use>
				<use transform="matrix(0.05,0,0,0.05,30.85,0)" xlink:href="#P"></use>
				<use transform="matrix(0.05,0,0,0.05,40.85,0)" xlink:href="#n"></use>
				<use transform="matrix(0.05,0,0,0.05,46.800000000000004,0)" xlink:href="#w"></use>
				<use transform="matrix(0.05,0,0,0.05,56.800000000000004,0)" xlink:href="#z"></use>
				<use transform="matrix(0.05,0,0,0.05,61.800000000000004,0)" xlink:href="#t"></use>
				<use transform="matrix(0.05,0,0,0.05,65.75,0)" xlink:href="#p"></use>
				<use transform="matrix(0.05,0,0,0.05,75.75,0)" xlink:href="#s"></use>
			</g>
			<path d="M140-251c81 0 123 46 123 126C263-46 219 4 140 4 59 4 17-45 17-125s42-126 123-126zm0 227c63 0 89-41 89-101s-29-99-89-99c-61 0-89 39-89 99S79-25 140-24" id="Q"></path>
			<path d="M115-194c55 1 70 41 70 98S169 2 115 4C84 4 66-9 55-30l1 105H24l-1-265h31l2 30c10-21 28-34 59-34zm-8 174c40 0 45-34 45-75s-6-73-45-74c-42 0-51 32-51 76 0 43 10 73 51 73" id="R"></path>
			<path d="M24-231v-30h32v30H24zM24 0v-190h32V0H24" id="S"></path>
			<path d="M96-169c-40 0-48 33-48 73s9 75 48 75c24 0 41-14 43-38l32 2c-6 37-31 61-74 61-59 0-76-41-82-99-10-93 101-131 147-64 4 7 5 14 7 22l-32 3c-4-21-16-35-41-35" id="T"></path>
			<path d="M141-36C126-15 110 5 73 4 37 3 15-17 15-53c-1-64 63-63 125-63 3-35-9-54-41-54-24 1-41 7-42 31l-33-3c5-37 33-52 76-52 45 0 72 20 72 64v82c-1 20 7 32 28 27v20c-31 9-61-2-59-35zM48-53c0 20 12 33 32 33 41-3 63-29 60-74-43 2-92-5-92 41" id="U"></path>
			<path d="M24 0v-261h32V0H24" id="V"></path>
			<g id="k">
				<use transform="matrix(0.05,0,0,0.05,0,0)" xlink:href="#Q"></use>
				<use transform="matrix(0.05,0,0,0.05,14,0)" xlink:href="#R"></use>
				<use transform="matrix(0.05,0,0,0.05,24,0)" xlink:href="#K"></use>
				<use transform="matrix(0.05,0,0,0.05,29,0)" xlink:href="#S"></use>
				<use transform="matrix(0.05,0,0,0.05,32.95,0)" xlink:href="#T"></use>
				<use transform="matrix(0.05,0,0,0.05,41.95,0)" xlink:href="#U"></use>
				<use transform="matrix(0.05,0,0,0.05,51.95,0)" xlink:href="#V"></use>
			</g>
			<path d="M30-248c87 1 191-15 191 75 0 78-77 80-158 76V0H30v-248zm33 125c57 0 124 11 124-50 0-59-68-47-124-48v98" id="W"></path>
			<path d="M100-194c62-1 85 37 85 99 1 63-27 99-86 99S16-35 15-95c0-66 28-99 85-99zM99-20c44 1 53-31 53-75 0-43-8-75-51-75s-53 32-53 75 10 74 51 75" id="X"></path>
			<path d="M206 0h-36l-40-164L89 0H53L-1-190h32L70-26l43-164h34l41 164 42-164h31" id="Y"></path>
			<g id="l">
				<use transform="matrix(0.05,0,0,0.05,0,0)" xlink:href="#W"></use>
				<use transform="matrix(0.05,0,0,0.05,12,0)" xlink:href="#X"></use>
				<use transform="matrix(0.05,0,0,0.05,22,0)" xlink:href="#Y"></use>
				<use transform="matrix(0.05,0,0,0.05,34.95,0)" xlink:href="#I"></use>
				<use transform="matrix(0.05,0,0,0.05,44.95,0)" xlink:href="#H"></use>
			</g>
		</defs>
	</g></svg>